<svg width="70" height="72" viewBox="0 0 70 72" fill="none" xmlns="http://www.w3.org/2000/svg">
<path fill-rule="evenodd" clip-rule="evenodd" d="M32.0091 0.000273901C40.24 -0.0620342 43.8148 10.5219 50.1644 15.7235C55.9509 20.4637 64.2539 22.3736 67.5117 29.0836C70.9509 36.1671 70.6039 44.7326 67.8238 52.0959C65.1136 59.274 59.6591 65.6061 52.5736 68.6484C46.1132 71.4223 39.0388 67.125 32.0091 67.4736C24.3786 67.8519 16.3976 74.7501 9.89674 70.7642C3.4675 66.8221 4.09158 57.2809 3.22777 49.8264C2.51962 43.7152 3.5233 37.8157 5.39942 31.9531C7.28814 26.0512 10.0796 20.769 14.0538 15.9968C19.3067 9.68917 23.7671 0.0626663 32.0091 0.000273901Z" fill="#46382A"/>
<path fill-rule="evenodd" clip-rule="evenodd" d="M35.2183 4.07249C42.1624 3.83875 50.2159 3.8741 54.9584 8.94149C59.6161 13.9182 57.231 21.8662 58.1822 28.6095C58.9245 33.8709 60.368 38.7691 59.9131 44.0629C59.3285 50.8662 60.1048 58.7355 55.1855 63.4816C50.1618 68.3283 42.2005 68.1597 35.2183 67.8878C28.466 67.6248 21.9665 65.7223 16.3521 61.9693C10.5621 58.0988 4.36903 53.3009 3.15264 46.4529C1.96892 39.7889 7.98569 34.3369 10.3148 27.9806C12.5208 21.9603 11.7935 14.6827 16.4225 10.2386C21.2946 5.56128 28.4616 4.29993 35.2183 4.07249Z" fill="#F4B33D"/>
<path fill-rule="evenodd" clip-rule="evenodd" d="M31.3451 7.38648C37.5017 6.24097 43.9492 7.70263 49.3206 10.9662C55.0271 14.4334 59.6203 19.6709 61.9655 25.991C64.3833 32.507 64.7694 39.8092 62.4554 46.364C60.1817 52.8044 55.0201 57.5597 49.4582 61.4193C44.0351 65.1825 37.8957 68.4347 31.3451 67.9524C25.0114 67.486 19.2825 63.689 15.0445 58.8854C11.3259 54.6705 11.8799 48.4346 9.57825 43.2804C6.824 37.1125 -1.67223 32.3203 0.291664 25.8481C2.24692 19.4043 11.863 20.2757 17.5922 16.8697C22.4941 13.9554 25.7582 8.42598 31.3451 7.38648Z" fill="#6FBFC1"/>
</svg>
